<svg width="22" height="22" viewBox="0 0 50 50" fill="none" xmlns="http://www.w3.org/2000/svg">
  <path d="M16.519 18.4845C20.3639 15.5401 19.5043 8.43845 25.5007 8.02291C33.2105 7.48864 31.627 16.4316 35.9102 20.9755C37.7728 22.9515 40.6866 20.2735 42.9969 24.2991C43.5516 25.2656 42.3157 25.9003 41.9326 26.9469C41.6858 27.6212 42.0469 28.5879 41.3356 28.6861C40.8008 28.7599 40.7312 27.8598 40.1934 27.9073C39.4708 27.9711 39.5785 28.8762 39.3627 29.5687C39.1434 30.2722 39.6046 30.8978 39.1031 31.4377C38.6755 31.8981 38.1616 31.7148 37.5715 31.9309C36.7954 32.2153 36.4479 32.8363 35.6246 32.7616C33.6258 33.2289 34.6642 30.1897 33.6258 30.9186C32.8696 31.2003 32.9645 32.0023 32.6913 32.7616C32.3217 33.7889 32.5443 34.4779 32.1981 35.5133C31.9248 36.3305 31.9241 36.9588 31.2636 37.5121C30.4392 38.2025 29.5223 37.469 28.5379 37.9015C27.6449 38.2938 27.4682 39.0648 26.565 39.433C25.6123 39.8215 24.9507 39.4839 23.9432 39.6926C22.7231 39.9453 23.0087 42.001 19.4523 42.001C15.5585 42.001 16.6042 39.3379 14.624 38.7841C12.9879 38.3265 10.9987 39.2893 9.5101 38.4706C7.79682 37.2246 8.69139 35.8487 8.316 35.3555C8.15793 35.1479 7.95257 34.9661 6.8623 34.8104C7.45936 34.1355 8.70037 34.0238 9.38031 34.447C10.205 34.9602 9.56982 36.0004 10.2889 36.6535C11.4288 37.6888 12.9175 37.0968 14.0529 36.0564C14.9801 35.2067 15.4964 34.3272 14.8836 33.2289C14.3945 32.3524 12.7639 32.7683 12.0541 32.0588C16.6747 31.5655 17.765 27.7256 17.765 27.7256C17.765 27.7256 16.0244 30.2636 14.8836 29.5687C14.1053 29.0946 14.7147 28.0146 14.0529 27.3882C12.9151 26.3111 11.0686 28.9205 10.0552 27.7256C9.18772 26.7027 10.8597 25.5128 10.2889 24.2991C9.77 23.1959 7.84874 23.4924 7.84874 22.3522C8.316 19.0534 13.1644 21.0535 16.519 18.4845Z" fill="black"/>
  <ellipse cx="23.451" cy="15.017" rx="1.78635" ry="3.18529" transform="rotate(7.04122 23.451 15.017)" fill="white"/>
  <ellipse cx="1.78635" cy="3.18529" rx="1.78635" ry="3.18529" transform="matrix(-0.992458 0.122583 0.122583 0.992458 29.7302 11.6367)" fill="white"/>
</svg>
